<?xml version="1.0" encoding="iso-8859-1"?>
<!-- Generator: Adobe Illustrator 21.0.1, SVG Export Plug-In . SVG Version: 6.00 Build 0)  -->
<svg version="1.1" id="&#x30EC;&#x30A4;&#x30E4;&#x30FC;_1"
	 xmlns="http://www.w3.org/2000/svg" xmlns:xlink="http://www.w3.org/1999/xlink" x="0px" y="0px" viewBox="0 0 170.079 170.079"
	 style="enable-background:new 0 0 170.079 170.079;" xml:space="preserve">
<g>
	<path style="fill:#FFFFFF;" d="M113.386,28.348H85.04H56.694v28.346H28.347V85.04v28.346
		c11.024,11.024,17.322,17.322,28.346,28.346h28.346h28.346c11.024-11.024,17.322-17.322,28.346-28.346V85.04V56.694
		C130.708,45.67,124.41,39.372,113.386,28.348z M113.386,85.041v28.346H85.04H56.694V85.041H85.04V56.695h28.346V85.041z"/>
	<polygon style="fill:#66BB6A;" points="85.039,56.694 85.039,85.041 56.693,85.041 56.693,113.387 85.039,113.387 113.386,113.387 
		113.386,85.041 113.386,56.694 	"/>
	<path style="fill:#66BB6A;" d="M141.732,0.001h-28.346H85.04H56.694H28.347l0,0c-15.655,0-28.346,12.691-28.346,28.346l0,0v28.346
		v28.346v28.346v28.346l0,0c0,15.655,12.691,28.346,28.346,28.346l0,0h28.346h28.346h28.346h28.346l0,0
		c15.655,0,28.346-12.691,28.346-28.346l0,0v-28.346V85.039V56.693V28.348l0,0C170.079,12.693,157.388,0.001,141.732,0.001
		L141.732,0.001z M141.732,85.041v28.346c-11.024,11.024-17.322,17.322-28.346,28.346H85.04H56.694
		c-11.024-11.024-17.322-17.322-28.346-28.346V85.041V56.695h28.346V28.348H85.04h28.346c11.024,11.024,17.322,17.322,28.346,28.346
		L141.732,85.041L141.732,85.041z"/>
</g>
</svg>
